<svg id="Layer_1" data-name="Layer 1" xmlns="http://www.w3.org/2000/svg" viewBox="0 0 1040 1040"><defs><style>.cls-1{fill:#c1a292;}</style></defs><title>Instragram01</title><path class="cls-1" d="M730.2,0H309.8C139,0,0,139,0,309.8V730.2C0,901,139,1040,309.8,1040H730.2C901,1040,1040,901,1040,730.2V309.8C1040,139,901,0,730.2,0ZM935.4,730.2c0,113.3-91.9,205.2-205.2,205.2H309.8c-113.3,0-205.2-91.9-205.2-205.2V309.8c0-113.3,91.9-205.2,205.2-205.2H730.2c113.3,0,205.2,91.9,205.2,205.2V730.2Z"/><path class="cls-1" d="M520,251c-148.3,0-269,120.7-269,269S371.7,789,520,789,789,668.3,789,520,668.3,251,520,251Zm0,433.4A164.4,164.4,0,1,1,684.4,520,164.39,164.39,0,0,1,520,684.4Z"/><circle class="cls-1" cx="789.5" cy="253" r="64.5"/></svg>