<?xml version="1.0" encoding="utf-8"?>
<!-- Generator: Adobe Illustrator 22.0.0, SVG Export Plug-In . SVG Version: 6.00 Build 0)  -->
<svg version="1.1" id="Layer_1" xmlns="http://www.w3.org/2000/svg" xmlns:xlink="http://www.w3.org/1999/xlink" x="0px" y="0px"
	 viewBox="0 0 1040 1040" style="enable-background:new 0 0 1040 1040;" xml:space="preserve">
<style type="text/css">
	.st0{fill:#C1A292;}
</style>
<g>
	<path class="st0" d="M730.2,0H309.8C139,0,0,139,0,309.8v420.4C0,901,139,1040,309.8,1040h420.4C901,1040,1040,901,1040,730.2
		V309.8C1040,139,901,0,730.2,0z M935.4,730.2c0,113.3-91.9,205.2-205.2,205.2H309.8c-113.3,0-205.2-91.9-205.2-205.2V309.8
		c0-113.3,91.9-205.2,205.2-205.2h420.4c113.3,0,205.2,91.9,205.2,205.2L935.4,730.2L935.4,730.2z"/>
	<path class="st0" d="M520,251c-148.3,0-269,120.7-269,269s120.7,269,269,269s269-120.7,269-269S668.3,251,520,251z M520,684.4
		c-90.8,0-164.4-73.6-164.4-164.4S429.2,355.6,520,355.6c90.8,0,164.4,73.6,164.4,164.4C684.4,610.8,610.8,684.4,520,684.4z"/>
	<circle class="st0" cx="789.5" cy="253" r="64.5"/>
</g>
</svg>
