<?xml version="1.0" encoding="utf-8"?>
<!-- Generator: Adobe Illustrator 23.1.1, SVG Export Plug-In . SVG Version: 6.00 Build 0)  -->
<svg version="1.1" id="Layer_1" xmlns="http://www.w3.org/2000/svg" xmlns:xlink="http://www.w3.org/1999/xlink" x="0px" y="0px"
	 viewBox="0 0 600 600" style="enable-background:new 0 0 600 600;" xml:space="preserve">
<style type="text/css">
	.st0{fill:#272727;}
</style>
<g>
	<path class="st0" d="M112.71522,201.7644c0-2.00081,1.53799-3.69307,3.6907-3.69307h8.92177
		c2.00082,0,3.69308,1.69226,3.69308,3.69307v42.61041l43.37941-44.7655c0.61472-0.769,1.69226-1.53798,2.92407-1.53798h11.53494
		c2.76981,0,4.30779,3.23026,2.15508,5.53723l-44.45694,45.22595l47.07248,51.84071
		c1.22945,1.53799,0.46045,5.07681-2.76981,5.07681h-12.3063c-1.53799,0-2.46126-0.6171-2.76981-1.07755l-44.76312-50.45465
		v47.83911c0,2.00082-1.69226,3.69308-3.69308,3.69308h-8.92177c-2.15271,0-3.6907-1.69226-3.6907-3.69308
		C112.71523,302.05896,112.71523,201.7644,112.71522,201.7644z"/>
	<path class="st0" d="M236.6825,200.99541c0-1.53799,1.38371-2.92407,2.92171-2.92407h10.15358
		c1.53799,0,2.92171,1.38608,2.92171,2.92407v101.83492c0,1.53799-1.38371,2.92172-2.92171,2.92172H239.6042
		c-1.53799,0-2.92171-1.38373-2.92171-2.92172V200.99541z"/>
	<path class="st0" d="M299.1254,201.7644c-0.61475-2.15509,0.61472-3.69307,2.76743-3.69307h10.30786
		c1.22943,0,2.46124,1.07753,2.76743,2.15508l18.61493,70.60754h0.61472l25.07303-72.60835
		c0.30856-0.92326,1.38611-1.69226,2.61554-1.69226h2.76743c1.22946,0,2.30701,0.769,2.61554,1.69226l25.38159,72.60835h0.6171
		l18.30399-70.60754c0.30856-1.07755,1.53799-2.15508,2.76746-2.15508h10.31021c2.15036,0,3.38455,1.53798,2.76746,3.69307
		l-29.07468,103.37054c-0.30856,1.22943-1.53799,2.15509-2.76746,2.15509h-2.46362c-1.07278,0-2.30698-0.76901-2.61554-1.69464
		l-27.07147-76.45096h-0.76898l-26.61105,76.45096c-0.30853,0.92563-1.53799,1.69464-2.61554,1.69464h-2.46124
		c-1.23181,0-2.46127-0.92566-2.76981-2.15509L299.1254,201.7644z"/>
	<path class="st0" d="M473.8511,200.99541c0-1.53799,1.38135-2.92407,2.91934-2.92407h10.15356
		c1.53799,0,2.9241,1.38608,2.9241,2.92407v101.83492c0,1.53799-1.38611,2.92172-2.9241,2.92172h-10.15356
		c-1.53799,0-2.91934-1.38373-2.91934-2.92172V200.99541z"/>
	<path class="st0" d="M128.07376,367.42355c5.05782,0,8.71054,1.6994,12.11642,4.65671
		c0.45096,0.39874,0.45096,1.00159,0.04985,1.40033l-2.20256,2.25476c-0.35127,0.44623-0.80223,0.44623-1.25317,0
		c-2.35208-2.05539-5.55623-3.35605-8.66069-3.35605c-7.15831,0-12.56501,6.00482-12.56501,13.01596
		c0,7.01117,5.45654,12.96851,12.61485,12.96851c3.65511,0,6.20892-1.45255,8.61086-3.30383
		c0.45094-0.35129,0.9019-0.3038,1.20334-0.05222l2.30223,2.25476c0.40111,0.34653,0.30142,1.00159-0.04984,1.34811
		c-3.40352,3.30859-7.70895,4.85608-12.16628,4.85608c-10.01355,0-18.07376-7.95578-18.07376-17.97171
		C110,375.48376,118.06021,367.42355,128.07376,367.42355z"/>
	<path class="st0" d="M171.43181,367.42355c10.01355,0,18.02393,8.06021,18.02393,18.07141
		c0,10.01593-8.01038,17.97171-18.02393,17.97171s-17.97408-7.95578-17.97408-17.97171
		C153.45773,375.48376,161.41826,367.42355,171.43181,367.42355z M171.43181,398.46344
		c7.15831,0,13.01596-5.81018,13.01596-12.96848c0-7.11084-5.85765-13.06818-13.01596-13.06818
		c-7.10846,0-12.96611,5.95734-12.96611,13.06818C158.4657,392.65326,164.32335,398.46344,171.43181,398.46344z"/>
	<path class="st0" d="M205.37679,368.8761c0-0.50314,0.40111-0.9541,0.95175-0.9541h3.30383
		c0.50079,0,0.95175,0.45096,0.95175,0.9541v29.43546h13.56659c0.55064,0,0.95175,0.45096,0.95175,0.9541v2.7532
		c0,0.49841-0.40111,0.94937-0.95175,0.94937h-17.82217c-0.55064,0-0.95175-0.45096-0.95175-0.94937V368.8761z"/>
	<path class="st0" d="M239.12001,368.8761c0-0.50314,0.40112-0.9541,0.95175-0.9541h3.30383
		c0.50079,0,0.95175,0.45096,0.95175,0.9541v29.43546h13.5666c0.55063,0,0.95175,0.45096,0.95175,0.9541v2.7532
		c0,0.49841-0.40112,0.94937-0.95175,0.94937h-17.82219c-0.55063,0-0.95175-0.45096-0.95175-0.94937V368.8761z"/>
	<path class="st0" d="M272.86563,368.8761c0-0.50314,0.40109-0.9541,0.95175-0.9541h20.02472
		c0.55063,0,0.95175,0.45096,0.95175,0.9541v2.80069c0,0.50314-0.40112,0.9541-0.95175,0.9541h-15.819v10.21057h13.36725
		c0.50079,0,0.95175,0.45093,0.95175,0.9541v2.80066c0,0.55066-0.45096,0.95413-0.95175,0.95413H278.0231v10.7612h15.819
		c0.55063,0,0.95175,0.45096,0.95175,0.9541v2.7532c0,0.49841-0.40112,0.94937-0.95175,0.94937h-20.02472
		c-0.55066,0-0.95175-0.45096-0.95175-0.94937V368.8761z"/>
	<path class="st0" d="M326.48642,367.42355c5.05783,0,8.71054,1.6994,12.11642,4.65671
		c0.45096,0.39874,0.45096,1.00159,0.04987,1.40033l-2.20258,2.25476c-0.35126,0.44623-0.80222,0.44623-1.25317,0
		c-2.35208-2.05539-5.55621-3.35605-8.66068-3.35605c-7.15833,0-12.565,6.00482-12.565,13.01596
		c0,7.01117,5.45654,12.96851,12.61484,12.96851c3.65509,0,6.20892-1.45255,8.61084-3.30383
		c0.45096-0.35129,0.90192-0.3038,1.20334-0.05222l2.30225,2.25476c0.40109,0.34653,0.30142,1.00159-0.04984,1.34811
		c-3.40353,3.30859-7.71133,4.85608-12.16629,4.85608c-10.01355,0-18.07376-7.95578-18.07376-17.97171
		C308.41266,375.48376,316.47287,367.42355,326.48642,367.42355z"/>
	<path class="st0" d="M359.37997,372.63089h-8.15991c-0.55063,0-0.95175-0.45096-0.95175-0.9541v-2.80069
		c0-0.50314,0.40112-0.9541,0.95175-0.9541h21.52713c0.55063,0,0.94937,0.45096,0.94937,0.9541v2.80069
		c0,0.50314-0.39874,0.9541-0.94937,0.9541h-8.15988v29.38797c0,0.49841-0.45096,0.94937-0.95413,0.94937h-3.30383
		c-0.49841,0-0.94937-0.45096-0.94937-0.94937V372.63089z"/>
	<path class="st0" d="M387.86603,368.8761c0-0.50314,0.45096-0.9541,0.94937-0.9541h3.30383
		c0.50317,0,0.95413,0.45096,0.95413,0.9541v33.14276c0,0.49841-0.45096,0.94937-0.95413,0.94937h-3.30383
		c-0.49841,0-0.94937-0.45096-0.94937-0.94937V368.8761z"/>
	<path class="st0" d="M426.96613,367.42355c10.01593,0,18.02393,8.06021,18.02393,18.07141
		c0,10.01593-8.008,17.97171-18.02393,17.97171c-10.0112,0-17.97171-7.95578-17.97171-17.97171
		C408.99442,375.48376,416.95493,367.42355,426.96613,367.42355z M426.96613,398.46344
		c7.15823,0,13.01596-5.81018,13.01596-12.96848c0-7.11084-5.85773-13.06818-13.01596-13.06818
		c-7.10611,0-12.96375,5.95734-12.96375,13.06818C414.00238,392.65326,419.86002,398.46344,426.96613,398.46344z"/>
	<path class="st0" d="M460.9111,368.32547c0-0.50317,0.45093-0.90192,0.9541-0.90192h1.24844l21.73123,25.13004h0.04749V368.8761
		c0-0.50314,0.40347-0.9541,0.9541-0.9541h3.20416c0.49841,0,0.94937,0.45096,0.94937,0.9541v33.69339
		c0,0.49844-0.45096,0.89719-0.94937,0.89719h-1.30539l-21.7265-25.83255h-0.04745v24.38474
		c0,0.49841-0.4035,0.94937-0.95413,0.94937h-3.15195c-0.50317,0-0.9541-0.45096-0.9541-0.94937V368.32547z"/>
</g>
</svg>
