<?xml version="1.0" encoding="utf-8"?>
<!-- Generator: Adobe Illustrator 22.0.0, SVG Export Plug-In . SVG Version: 6.00 Build 0)  -->
<svg version="1.1" id="Layer_1" xmlns="http://www.w3.org/2000/svg" xmlns:xlink="http://www.w3.org/1999/xlink" x="0px" y="0px"
	 viewBox="0 0 338 77.1" style="enable-background:new 0 0 338 77.1;" xml:space="preserve">
<style type="text/css">
	.st0{fill:#C1A292;}
</style>
<g>
	
		<rect x="186.3" y="2.7" transform="matrix(0.7071 -0.7071 0.7071 0.7071 51.5022 135.2603)" class="st0" width="5.4" height="5.4"/>
	<rect x="305" y="2.7" transform="matrix(0.7071 -0.7071 0.7071 0.7071 86.2646 219.1838)" class="st0" width="5.4" height="5.4"/>
	
		<rect x="225.9" y="2.7" transform="matrix(0.7071 -0.7071 0.7071 0.7071 63.1078 163.2783)" class="st0" width="5.4" height="5.4"/>
	
		<rect x="331.4" y="2.7" transform="matrix(0.7071 -0.7071 0.7071 0.7071 94.0086 237.8795)" class="st0" width="5.4" height="5.4"/>
	<polygon class="st0" points="10.3,24.4 6.5,28.5 6.5,39.2 0,39.2 0,1.6 6.5,1.6 6.5,19.7 23.3,1.6 31.7,1.6 14.6,19.8 39.5,46.9 
		31,46.9 	"/>
	<path class="st0" d="M33.7,28.1V11.4h6.1v15.9c0,4,2.7,6.6,6.7,6.6c4,0,6.7-2.7,6.7-6.6V11.4h6.1v16.7c0,7.1-5.1,11.7-12.8,11.7
		C38.8,39.8,33.7,35.2,33.7,28.1"/>
	<path class="st0" d="M93.4,0v39.2h-6.1v-4c-2.3,2.9-5.7,4.6-9.7,4.6c-7.8,0-13.7-6.3-13.7-14.5c0-8.3,5.8-14.5,13.7-14.5
		c4.1,0,7.5,1.7,9.7,4.6V0H93.4z M87.3,25.3c0-4.9-3.6-8.7-8.5-8.7c-5,0-8.6,3.8-8.6,8.7c0,4.9,3.6,8.7,8.6,8.7
		C83.7,33.9,87.3,30.2,87.3,25.3"/>
	<path class="st0" d="M127.5,11.4v27.8h-6.1v-4c-2.3,2.9-5.7,4.6-9.7,4.6c-7.8,0-13.7-6.3-13.7-14.5c0-8.3,5.8-14.5,13.7-14.5
		c4.1,0,7.5,1.7,9.7,4.6v-4H127.5z M121.4,25.3c0-4.9-3.6-8.7-8.5-8.7c-5,0-8.6,3.8-8.6,8.7c0,4.9,3.6,8.7,8.6,8.7
		C117.8,33.9,121.4,30.2,121.4,25.3"/>
	<polygon class="st0" points="182.3,1.6 167.2,39.2 160.5,39.2 145.3,1.6 152.6,1.6 163.9,30.6 175.3,1.6 	"/>
	<rect x="186" y="12.9" class="st0" width="6.1" height="26.2"/>
	<rect x="199.2" y="0" class="st0" width="6.1" height="39.2"/>
	<rect x="212.4" y="0" class="st0" width="6.1" height="39.2"/>
	<rect x="225.6" y="12.9" class="st0" width="6.1" height="26.2"/>
	<path class="st0" d="M265.3,21.7v17.5h-6.1V23.7c0-4.2-2.7-7.1-6.9-7.1c-4.4,0-7.3,2.9-7.3,7.2v15.3h-6.1V11.4h6.1V15
		c2.2-2.8,5.4-4.2,9.4-4.2C260.8,10.8,265.3,15.1,265.3,21.7"/>
	<rect x="304.7" y="12.9" class="st0" width="6.1" height="26.2"/>
	<rect x="317.9" y="0" class="st0" width="6.1" height="39.2"/>
	<rect x="331.1" y="12.9" class="st0" width="6.1" height="26.2"/>
	<path class="st0" d="M290.2,39.4h-9.5c-2,0-3.3-1.1-3.3-2.7c0-1,0.5-2.1,1.5-2.7c1.6,0.6,3.3,0.9,5.2,0.9c7.3,0,12.9-5.2,12.9-12.1
		c0-2.8-0.9-5.4-2.6-7.4c0.2-1.5,1.4-2.4,3.1-2.4h1.9V7.4h-2.2c-3.5,0-6.1,1.8-6.8,4.8c-1.9-0.9-4-1.5-6.3-1.5
		c-7.3,0-12.9,5.2-12.9,12.1c0,3.5,1.4,6.5,3.8,8.7c-2.2,1.3-3.6,3.9-3.6,6.7c0,4.2,3.3,7.1,8.3,7.1h9.5c1.7,0,3.1,0.6,4,1.6h7.1
		C299.2,42.3,295.4,39.4,290.2,39.4 M284,16.5c3.8,0,6.6,2.7,6.6,6.4c0,3.6-2.8,6.4-6.6,6.4c-3.8,0-6.6-2.8-6.6-6.4
		C277.4,19.3,280.2,16.5,284,16.5"/>
</g>
<g>
	<path class="st0" d="M45.5,58.8v1.8h-4.6v12.5H39V60.6h-4.6v-1.8H45.5z"/>
	<path class="st0" d="M48.5,60.4c-0.3,0-0.6-0.1-0.9-0.3c-0.2-0.2-0.3-0.5-0.3-0.8c0-0.3,0.1-0.6,0.3-0.9c0.2-0.2,0.5-0.3,0.9-0.3
		c0.3,0,0.6,0.1,0.8,0.3s0.3,0.5,0.3,0.9c0,0.3-0.1,0.6-0.3,0.8C49.1,60.3,48.9,60.4,48.5,60.4z M47.6,73.1V62.6h1.8v10.6H47.6z"/>
	<path class="st0" d="M65.1,62.3c1.2,0,2.2,0.4,2.9,1.1c0.7,0.7,1.1,1.7,1.1,2.9v6.8h-1.8v-6.3c0-0.8-0.3-1.5-0.8-2
		c-0.5-0.5-1.2-0.8-2-0.8c-0.9,0-1.6,0.3-2.1,0.8c-0.5,0.5-0.8,1.2-0.8,2v6.3h-1.8v-6.3c0-0.8-0.3-1.5-0.8-2c-0.5-0.5-1.2-0.8-2-0.8
		c-0.9,0-1.6,0.3-2.1,0.8c-0.5,0.5-0.8,1.2-0.8,2v6.3h-1.8V62.6h1.8V64c0.8-1.1,2-1.7,3.5-1.7c0.8,0,1.5,0.2,2.2,0.5
		c0.6,0.4,1.1,0.9,1.4,1.5c0.4-0.7,0.9-1.2,1.6-1.5C63.5,62.5,64.2,62.3,65.1,62.3z"/>
	<path class="st0" d="M82.3,67.8c0,0.1,0,0.4-0.1,0.8h-9.1c0.2,0.9,0.6,1.7,1.3,2.3c0.7,0.6,1.6,0.9,2.6,0.9c0.8,0,1.5-0.2,2.1-0.5
		c0.6-0.3,1.1-0.7,1.5-1.2l1.2,1.1c-0.5,0.7-1.2,1.3-2.1,1.7C79,73.2,78,73.4,77,73.4c-1.7,0-3-0.5-4.1-1.6c-1.1-1.1-1.7-2.4-1.7-4
		c0-1,0.2-2,0.7-2.8c0.5-0.8,1.2-1.5,2-2c0.9-0.5,1.8-0.7,2.8-0.7c1,0,2,0.2,2.8,0.7c0.8,0.5,1.5,1.1,2,2
		C82.1,65.9,82.3,66.8,82.3,67.8z M76.8,63.9c-0.9,0-1.7,0.3-2.4,0.9c-0.7,0.6-1.1,1.3-1.3,2.2h7.3c-0.2-0.9-0.6-1.7-1.3-2.2
		C78.5,64.2,77.7,63.9,76.8,63.9z"/>
	<path class="st0" d="M98.5,62.6h1.8v10.6h-1.8v-1.9c-0.5,0.7-1,1.2-1.7,1.6c-0.7,0.4-1.5,0.6-2.4,0.6c-1,0-1.9-0.2-2.7-0.7
		c-0.8-0.5-1.4-1.1-1.9-2c-0.5-0.8-0.7-1.8-0.7-2.8s0.2-2,0.7-2.8c0.5-0.8,1.1-1.5,1.9-2c0.8-0.5,1.7-0.7,2.7-0.7
		c0.9,0,1.7,0.2,2.4,0.6c0.7,0.4,1.3,0.9,1.7,1.6V62.6z M94.7,71.7c1.1,0,2-0.4,2.7-1.1c0.7-0.7,1.1-1.6,1.1-2.7
		c0-1.1-0.4-2-1.1-2.7c-0.7-0.7-1.6-1.1-2.7-1.1c-1.1,0-2,0.4-2.7,1.1c-0.7,0.7-1.1,1.6-1.1,2.7c0,1.1,0.4,2,1.1,2.7
		C92.7,71.3,93.6,71.7,94.7,71.7z"/>
	<path class="st0" d="M108.9,62.3c1.3,0,2.3,0.4,3.1,1.2c0.8,0.8,1.2,1.8,1.2,3.1v6.5h-1.8v-6c0-0.9-0.3-1.7-0.8-2.3
		c-0.6-0.6-1.3-0.9-2.2-0.9c-1,0-1.8,0.3-2.4,0.9c-0.6,0.6-0.9,1.3-0.9,2.3v5.9h-1.8V62.6h1.8v1.6C105.9,62.9,107.2,62.3,108.9,62.3
		z"/>
	<path class="st0" d="M124.8,58.2h1.8v14.9h-1.8v-1.9c-0.5,0.7-1,1.2-1.7,1.6c-0.7,0.4-1.5,0.6-2.4,0.6c-1,0-1.9-0.2-2.7-0.7
		c-0.8-0.5-1.4-1.1-1.9-2c-0.5-0.8-0.7-1.8-0.7-2.8s0.2-2,0.7-2.8c0.5-0.8,1.1-1.5,1.9-2c0.8-0.5,1.7-0.7,2.7-0.7
		c0.9,0,1.7,0.2,2.4,0.6c0.7,0.4,1.3,0.9,1.7,1.6V58.2z M121,71.7c1.1,0,2-0.4,2.7-1.1c0.7-0.7,1.1-1.6,1.1-2.7c0-1.1-0.4-2-1.1-2.7
		c-0.7-0.7-1.6-1.1-2.7-1.1c-1.1,0-2,0.4-2.7,1.1c-0.7,0.7-1.1,1.6-1.1,2.7c0,1.1,0.4,2,1.1,2.7C119,71.3,119.9,71.7,121,71.7z"/>
	<path class="st0" d="M139.5,73.4c-1.1,0-2.1-0.2-3.1-0.6c-1-0.4-1.8-1-2.5-1.7l1-1.4c0.6,0.6,1.2,1.1,2.1,1.4
		c0.8,0.4,1.7,0.6,2.5,0.6c1,0,1.8-0.2,2.4-0.7c0.6-0.4,1-1,1-1.7c0-0.2,0-0.4-0.1-0.5c-0.1-0.2-0.1-0.3-0.2-0.5
		c-0.1-0.1-0.2-0.3-0.4-0.4c-0.2-0.1-0.3-0.2-0.4-0.3c-0.1-0.1-0.3-0.2-0.5-0.3c-0.2-0.1-0.4-0.2-0.5-0.2c-0.1,0-0.3-0.1-0.6-0.2
		c-0.3-0.1-0.4-0.1-0.5-0.1c-0.1,0-0.2-0.1-0.5-0.1c-0.5-0.1-1-0.2-1.4-0.4c-0.4-0.2-0.9-0.3-1.3-0.6c-0.4-0.2-0.8-0.5-1.1-0.8
		s-0.5-0.7-0.7-1.1c-0.2-0.4-0.3-0.9-0.3-1.4c0-1.2,0.5-2.2,1.4-2.9c0.9-0.7,2.2-1.1,3.7-1.1c1,0,1.9,0.2,2.7,0.5
		c0.8,0.3,1.5,0.8,2,1.3l-0.9,1.4c-0.4-0.4-0.9-0.8-1.6-1.1c-0.7-0.3-1.4-0.4-2.2-0.4c-0.9,0-1.7,0.2-2.2,0.6
		c-0.6,0.4-0.9,0.9-0.9,1.6c0,1.2,1.1,2,3.4,2.5c0.2,0,0.5,0.1,0.7,0.2c0.2,0.1,0.5,0.2,0.9,0.3c0.4,0.1,0.7,0.3,1,0.4
		c0.3,0.1,0.6,0.3,0.9,0.6c0.3,0.2,0.6,0.5,0.8,0.7c0.2,0.3,0.4,0.6,0.6,1c0.1,0.4,0.2,0.8,0.2,1.2c0,1.2-0.5,2.2-1.5,3
		C142.3,73,141.1,73.4,139.5,73.4z"/>
	<path class="st0" d="M152.9,62.3c1.5,0,2.8,0.5,3.8,1.6c1,1.1,1.5,2.4,1.5,4s-0.5,2.9-1.5,4c-1,1.1-2.3,1.6-3.8,1.6
		c-0.9,0-1.7-0.2-2.4-0.6c-0.7-0.4-1.3-0.9-1.7-1.6v5.8H147V62.6h1.8v1.9c0.5-0.7,1-1.2,1.7-1.6C151.2,62.5,152,62.3,152.9,62.3z
		 M152.5,71.7c1.1,0,2-0.4,2.7-1.1c0.7-0.7,1.1-1.6,1.1-2.7c0-1.1-0.4-2-1.1-2.7c-0.7-0.7-1.6-1.1-2.7-1.1c-1.1,0-2,0.4-2.7,1.1
		c-0.7,0.7-1.1,1.6-1.1,2.7c0,1.1,0.4,2,1.1,2.7C150.6,71.3,151.5,71.7,152.5,71.7z"/>
	<path class="st0" d="M169.3,62.6h1.8v10.6h-1.8v-1.9c-0.5,0.7-1,1.2-1.7,1.6c-0.7,0.4-1.5,0.6-2.4,0.6c-1,0-1.9-0.2-2.7-0.7
		c-0.8-0.5-1.4-1.1-1.9-2c-0.5-0.8-0.7-1.8-0.7-2.8s0.2-2,0.7-2.8c0.5-0.8,1.1-1.5,1.9-2c0.8-0.5,1.7-0.7,2.7-0.7
		c0.9,0,1.7,0.2,2.4,0.6c0.7,0.4,1.3,0.9,1.7,1.6V62.6z M165.5,71.7c1.1,0,2-0.4,2.7-1.1c0.7-0.7,1.1-1.6,1.1-2.7
		c0-1.1-0.4-2-1.1-2.7c-0.7-0.7-1.6-1.1-2.7-1.1c-1.1,0-2,0.4-2.7,1.1c-0.7,0.7-1.1,1.6-1.1,2.7c0,1.1,0.4,2,1.1,2.7
		C163.5,71.3,164.4,71.7,165.5,71.7z"/>
	<path class="st0" d="M179.1,73.4c-1.1,0-2-0.2-2.9-0.7c-0.9-0.5-1.5-1.1-2-2c-0.5-0.8-0.7-1.8-0.7-2.8s0.2-2,0.7-2.8
		c0.5-0.8,1.2-1.5,2-2c0.9-0.5,1.8-0.7,2.9-0.7c1,0,2,0.2,2.8,0.7c0.9,0.5,1.5,1.1,2,1.9l-1.5,0.9c-0.3-0.6-0.8-1-1.4-1.4
		c-0.6-0.3-1.2-0.5-1.9-0.5c-1.1,0-2,0.4-2.7,1.1c-0.7,0.7-1.1,1.6-1.1,2.7c0,1.1,0.4,2,1.1,2.7c0.7,0.7,1.6,1.1,2.7,1.1
		c0.7,0,1.3-0.2,1.9-0.5c0.6-0.3,1-0.8,1.4-1.4l1.5,0.9c-0.5,0.8-1.1,1.5-2,1.9C181.1,73.1,180.1,73.4,179.1,73.4z"/>
	<path class="st0" d="M196.4,67.8c0,0.1,0,0.4-0.1,0.8h-9.1c0.2,0.9,0.6,1.7,1.3,2.3c0.7,0.6,1.6,0.9,2.6,0.9c0.8,0,1.5-0.2,2.1-0.5
		c0.6-0.3,1.1-0.7,1.5-1.2l1.2,1.1c-0.5,0.7-1.2,1.3-2.1,1.7c-0.8,0.4-1.8,0.6-2.8,0.6c-1.7,0-3-0.5-4.1-1.6c-1.1-1.1-1.7-2.4-1.7-4
		c0-1,0.2-2,0.7-2.8c0.5-0.8,1.2-1.5,2-2c0.9-0.5,1.8-0.7,2.8-0.7c1,0,2,0.2,2.8,0.7c0.8,0.5,1.5,1.1,2,2
		C196.1,65.9,196.4,66.8,196.4,67.8z M190.8,63.9c-0.9,0-1.7,0.3-2.4,0.9c-0.7,0.6-1.1,1.3-1.3,2.2h7.3c-0.2-0.9-0.6-1.7-1.3-2.2
		C192.5,64.2,191.7,63.9,190.8,63.9z"/>
	<path class="st0" d="M212.2,73.1l-4.3-5.7h-2.1v5.7h-1.9V58.8h5.8c1.3,0,2.3,0.4,3.2,1.2c0.9,0.8,1.3,1.9,1.3,3.1
		c0,1.2-0.4,2.1-1.1,2.9c-0.8,0.8-1.7,1.2-2.9,1.3l4.4,5.7H212.2z M205.8,60.6v5.2h3.9c0.7,0,1.3-0.2,1.8-0.7s0.7-1.1,0.7-1.9
		c0-0.7-0.2-1.4-0.7-1.9c-0.5-0.5-1.1-0.7-1.8-0.7H205.8z"/>
	<path class="st0" d="M226.7,67.8c0,0.1,0,0.4-0.1,0.8h-9.1c0.2,0.9,0.6,1.7,1.3,2.3c0.7,0.6,1.6,0.9,2.6,0.9c0.8,0,1.5-0.2,2.1-0.5
		c0.6-0.3,1.1-0.7,1.5-1.2l1.2,1.1c-0.5,0.7-1.2,1.3-2.1,1.7c-0.8,0.4-1.8,0.6-2.8,0.6c-1.7,0-3-0.5-4.1-1.6c-1.1-1.1-1.7-2.4-1.7-4
		c0-1,0.2-2,0.7-2.8c0.5-0.8,1.2-1.5,2-2c0.9-0.5,1.8-0.7,2.8-0.7c1,0,2,0.2,2.8,0.7c0.8,0.5,1.5,1.1,2,2
		C226.5,65.9,226.7,66.8,226.7,67.8z M221.2,63.9c-0.9,0-1.7,0.3-2.4,0.9c-0.7,0.6-1.1,1.3-1.3,2.2h7.3c-0.2-0.9-0.6-1.7-1.3-2.2
		C222.9,64.2,222.1,63.9,221.2,63.9z"/>
	<path class="st0" d="M237.8,58.2h1.8v14.9h-1.8v-1.9c-0.5,0.7-1,1.2-1.7,1.6c-0.7,0.4-1.5,0.6-2.4,0.6c-1,0-1.9-0.2-2.7-0.7
		c-0.8-0.5-1.4-1.1-1.9-2c-0.5-0.8-0.7-1.8-0.7-2.8s0.2-2,0.7-2.8c0.5-0.8,1.1-1.5,1.9-2c0.8-0.5,1.7-0.7,2.7-0.7
		c0.9,0,1.7,0.2,2.4,0.6c0.7,0.4,1.3,0.9,1.7,1.6V58.2z M234,71.7c1.1,0,2-0.4,2.7-1.1c0.7-0.7,1.1-1.6,1.1-2.7c0-1.1-0.4-2-1.1-2.7
		c-0.7-0.7-1.6-1.1-2.7-1.1c-1.1,0-2,0.4-2.7,1.1c-0.7,0.7-1.1,1.6-1.1,2.7c0,1.1,0.4,2,1.1,2.7C232,71.3,232.9,71.7,234,71.7z"/>
	<path class="st0" d="M253,67.8c0,0.1,0,0.4-0.1,0.8h-9.1c0.2,0.9,0.6,1.7,1.3,2.3c0.7,0.6,1.6,0.9,2.6,0.9c0.8,0,1.5-0.2,2.1-0.5
		c0.6-0.3,1.1-0.7,1.5-1.2l1.2,1.1c-0.5,0.7-1.2,1.3-2.1,1.7c-0.8,0.4-1.8,0.6-2.8,0.6c-1.7,0-3-0.5-4.1-1.6c-1.1-1.1-1.7-2.4-1.7-4
		c0-1,0.2-2,0.7-2.8c0.5-0.8,1.2-1.5,2-2c0.9-0.5,1.8-0.7,2.8-0.7c1,0,2,0.2,2.8,0.7c0.8,0.5,1.5,1.1,2,2
		C252.7,65.9,253,66.8,253,67.8z M247.4,63.9c-0.9,0-1.7,0.3-2.4,0.9c-0.7,0.6-1.1,1.3-1.3,2.2h7.3c-0.2-0.9-0.6-1.7-1.3-2.2
		C249.2,64.2,248.4,63.9,247.4,63.9z"/>
	<path class="st0" d="M255.8,61.1c0-1,0.3-1.8,0.8-2.3s1.3-0.8,2.3-0.8c0.7,0,1.3,0.1,1.8,0.4V60c-0.5-0.2-1-0.4-1.5-0.4
		c-1.1,0-1.7,0.5-1.7,1.6v1.4h3v1.6h-3v9h-1.8v-9h-1.9v-1.6h1.9V61.1z M263.7,60.4c-0.3,0-0.6-0.1-0.9-0.3c-0.2-0.2-0.3-0.5-0.3-0.8
		c0-0.3,0.1-0.6,0.3-0.9c0.2-0.2,0.5-0.3,0.9-0.3c0.3,0,0.6,0.1,0.8,0.3c0.2,0.2,0.3,0.5,0.3,0.9c0,0.3-0.1,0.6-0.3,0.8
		C264.3,60.3,264,60.4,263.7,60.4z M262.8,73.1V62.6h1.8v10.6H262.8z"/>
	<path class="st0" d="M273.2,62.3c1.3,0,2.3,0.4,3.1,1.2c0.8,0.8,1.2,1.8,1.2,3.1v6.5h-1.8v-6c0-0.9-0.3-1.7-0.8-2.3
		c-0.6-0.6-1.3-0.9-2.2-0.9c-1,0-1.8,0.3-2.4,0.9c-0.6,0.6-0.9,1.3-0.9,2.3v5.9h-1.8V62.6h1.8v1.6C270.2,62.9,271.5,62.3,273.2,62.3
		z"/>
	<path class="st0" d="M290.7,67.8c0,0.1,0,0.4-0.1,0.8h-9.1c0.2,0.9,0.6,1.7,1.3,2.3c0.7,0.6,1.6,0.9,2.6,0.9c0.8,0,1.5-0.2,2.1-0.5
		c0.6-0.3,1.1-0.7,1.5-1.2l1.2,1.1c-0.5,0.7-1.2,1.3-2.1,1.7c-0.8,0.4-1.8,0.6-2.8,0.6c-1.7,0-3-0.5-4.1-1.6c-1.1-1.1-1.7-2.4-1.7-4
		c0-1,0.2-2,0.7-2.8c0.5-0.8,1.2-1.5,2-2c0.9-0.5,1.8-0.7,2.8-0.7c1,0,2,0.2,2.8,0.7c0.8,0.5,1.5,1.1,2,2
		C290.5,65.9,290.7,66.8,290.7,67.8z M285.2,63.9c-0.9,0-1.7,0.3-2.4,0.9c-0.7,0.6-1.1,1.3-1.3,2.2h7.3c-0.2-0.9-0.6-1.7-1.3-2.2
		C286.9,64.2,286.1,63.9,285.2,63.9z"/>
	<path class="st0" d="M301.8,58.2h1.8v14.9h-1.8v-1.9c-0.5,0.7-1,1.2-1.7,1.6c-0.7,0.4-1.5,0.6-2.4,0.6c-1,0-1.9-0.2-2.7-0.7
		c-0.8-0.5-1.4-1.1-1.9-2c-0.5-0.8-0.7-1.8-0.7-2.8s0.2-2,0.7-2.8c0.5-0.8,1.1-1.5,1.9-2c0.8-0.5,1.7-0.7,2.7-0.7
		c0.9,0,1.7,0.2,2.4,0.6c0.7,0.4,1.3,0.9,1.7,1.6V58.2z M298,71.7c1.1,0,2-0.4,2.7-1.1c0.7-0.7,1.1-1.6,1.1-2.7c0-1.1-0.4-2-1.1-2.7
		c-0.7-0.7-1.6-1.1-2.7-1.1c-1.1,0-2,0.4-2.7,1.1c-0.7,0.7-1.1,1.6-1.1,2.7c0,1.1,0.4,2,1.1,2.7C296,71.3,296.9,71.7,298,71.7z"/>
</g>
</svg>
