<?xml version="1.0" encoding="UTF-8"?><svg id="Layer_1" xmlns="http://www.w3.org/2000/svg" viewBox="0 0 454.35 183.76"><defs><style>.cls-1{fill:#c0a191;}</style></defs><g><path class="cls-1" d="M106.52,110.63v1.74h-4.48v12.24h-1.84v-12.24h-4.48v-1.74h10.8Z"/><path class="cls-1" d="M109.48,112.21c-.34,0-.62-.11-.84-.33-.22-.22-.34-.5-.34-.83s.11-.61,.34-.83c.22-.22,.5-.33,.84-.33s.6,.11,.82,.33,.33,.49,.33,.83-.11,.61-.33,.83c-.22,.22-.49,.33-.82,.33Zm-.87,12.39v-10.33h1.74v10.33h-1.74Z"/><path class="cls-1" d="M125.62,114.03c1.19,0,2.14,.35,2.84,1.06s1.06,1.66,1.06,2.84v6.67h-1.74v-6.18c0-.82-.25-1.48-.74-1.97-.49-.49-1.15-.74-1.96-.74s-1.52,.25-2.04,.75-.77,1.17-.77,2v6.14h-1.74v-6.18c0-.82-.25-1.48-.74-1.97-.49-.49-1.15-.74-1.96-.74s-1.52,.25-2.04,.75-.77,1.17-.77,2v6.14h-1.74v-10.33h1.74v1.4c.78-1.09,1.91-1.64,3.38-1.64,.8,0,1.51,.18,2.11,.53,.6,.36,1.05,.85,1.36,1.49,.39-.65,.91-1.15,1.55-1.5,.64-.35,1.38-.52,2.2-.52Z"/><path class="cls-1" d="M142.48,119.44c0,.1-.02,.36-.05,.77h-8.89c.18,.91,.61,1.64,1.3,2.2,.69,.56,1.53,.84,2.53,.84,.74,0,1.42-.16,2.04-.47,.62-.31,1.1-.72,1.45-1.21l1.2,1.03c-.52,.7-1.2,1.25-2.02,1.65-.83,.4-1.74,.6-2.73,.6-1.62,0-2.96-.52-4.04-1.56-1.07-1.04-1.61-2.34-1.61-3.89,0-1,.24-1.91,.71-2.74s1.12-1.47,1.95-1.93,1.75-.7,2.77-.7,1.93,.23,2.75,.7c.82,.47,1.47,1.12,1.94,1.94,.47,.83,.7,1.75,.7,2.76Zm-5.41-3.81c-.9,0-1.67,.28-2.32,.84-.65,.56-1.06,1.28-1.23,2.16h7.11c-.16-.9-.57-1.62-1.23-2.17-.65-.55-1.43-.83-2.33-.83Z"/><path class="cls-1" d="M158.25,114.28h1.74v10.33h-1.74v-1.86c-.44,.66-1.01,1.18-1.71,1.55-.7,.37-1.47,.56-2.31,.56-.97,0-1.85-.24-2.64-.71-.79-.47-1.41-1.12-1.86-1.95-.44-.83-.67-1.75-.67-2.75s.22-1.93,.67-2.75c.45-.83,1.06-1.48,1.86-1.95s1.67-.71,2.64-.71c.84,0,1.61,.19,2.31,.56,.7,.37,1.26,.89,1.71,1.55v-1.86Zm-3.69,8.89c1.06,0,1.93-.36,2.64-1.07,.7-.71,1.05-1.6,1.05-2.66s-.35-1.95-1.05-2.66c-.7-.71-1.58-1.07-2.64-1.07s-1.95,.36-2.65,1.07-1.06,1.6-1.06,2.66,.35,1.95,1.06,2.66c.71,.71,1.59,1.07,2.65,1.07Z"/><path class="cls-1" d="M168.41,114.03c1.26,0,2.27,.38,3.04,1.15s1.15,1.78,1.15,3.05v6.38h-1.74v-5.84c0-.92-.27-1.66-.82-2.22s-1.28-.84-2.2-.84-1.72,.28-2.29,.85c-.57,.57-.86,1.32-.86,2.25v5.8h-1.74v-10.33h1.74v1.57c.84-1.21,2.08-1.82,3.72-1.82Z"/><path class="cls-1" d="M183.97,110.01h1.74v14.59h-1.74v-1.86c-.44,.66-1.01,1.18-1.71,1.55-.7,.37-1.47,.56-2.31,.56-.97,0-1.85-.24-2.64-.71-.79-.47-1.41-1.12-1.86-1.95-.44-.83-.67-1.75-.67-2.75s.22-1.93,.67-2.75c.45-.83,1.06-1.48,1.86-1.95s1.67-.71,2.64-.71c.84,0,1.61,.19,2.31,.56,.7,.37,1.26,.89,1.71,1.55v-6.12Zm-3.69,13.16c1.06,0,1.93-.36,2.64-1.07,.7-.71,1.05-1.6,1.05-2.66s-.35-1.95-1.05-2.66-1.58-1.07-2.64-1.07-1.95,.36-2.65,1.07c-.71,.71-1.06,1.6-1.06,2.66s.35,1.95,1.06,2.66c.71,.71,1.59,1.07,2.65,1.07Z"/><path class="cls-1" d="M198.36,124.85c-1.04,0-2.05-.2-3.04-.6-.98-.4-1.8-.94-2.45-1.62l.99-1.39c.54,.58,1.21,1.05,2.02,1.41,.8,.36,1.63,.54,2.48,.54,.93,0,1.71-.22,2.34-.65,.63-.43,.95-.98,.95-1.65,0-.18-.03-.36-.09-.53-.06-.17-.13-.32-.21-.44-.08-.13-.2-.25-.36-.38-.16-.12-.3-.22-.41-.3-.12-.08-.29-.16-.51-.25s-.39-.15-.51-.2c-.12-.04-.3-.1-.55-.17-.25-.07-.42-.11-.5-.13-.08-.02-.24-.06-.48-.11-.5-.11-.97-.23-1.4-.38-.43-.15-.86-.34-1.28-.57-.42-.23-.77-.49-1.07-.78-.29-.29-.53-.63-.71-1.04-.18-.41-.27-.85-.27-1.33,0-1.16,.46-2.1,1.39-2.82,.93-.72,2.12-1.08,3.59-1.08,.96,0,1.85,.16,2.65,.47,.8,.32,1.45,.75,1.95,1.29l-.89,1.39c-.38-.42-.91-.77-1.59-1.06-.68-.28-1.39-.43-2.14-.43-.88,0-1.61,.2-2.19,.61-.58,.41-.87,.92-.87,1.56,0,1.15,1.11,1.95,3.34,2.41,.24,.05,.48,.1,.71,.16s.52,.15,.87,.27c.35,.12,.68,.25,.97,.39,.29,.14,.6,.32,.91,.55s.58,.47,.8,.73,.4,.57,.54,.93c.14,.36,.21,.75,.21,1.17,0,1.18-.5,2.15-1.49,2.9s-2.23,1.13-3.71,1.13Z"/><path class="cls-1" d="M211.38,114.03c1.48,0,2.71,.52,3.7,1.55,.99,1.04,1.48,2.32,1.48,3.86s-.49,2.82-1.48,3.86-2.22,1.55-3.7,1.55c-.84,0-1.61-.19-2.3-.56-.69-.37-1.26-.89-1.7-1.55v5.8h-1.74v-14.27h1.74v1.86c.44-.66,1.01-1.18,1.7-1.55,.69-.37,1.46-.56,2.3-.56Zm-.33,9.14c1.06,0,1.95-.36,2.65-1.07,.71-.71,1.06-1.6,1.06-2.66s-.35-1.95-1.06-2.66c-.71-.71-1.59-1.07-2.65-1.07s-1.93,.36-2.63,1.07c-.7,.71-1.05,1.6-1.05,2.66s.35,1.95,1.05,2.66c.7,.71,1.58,1.07,2.63,1.07Z"/><path class="cls-1" d="M227.42,114.28h1.74v10.33h-1.74v-1.86c-.44,.66-1.01,1.18-1.71,1.55-.7,.37-1.47,.56-2.31,.56-.97,0-1.85-.24-2.64-.71-.79-.47-1.41-1.12-1.86-1.95-.44-.83-.67-1.75-.67-2.75s.22-1.93,.67-2.75c.45-.83,1.06-1.48,1.86-1.95s1.67-.71,2.64-.71c.84,0,1.61,.19,2.31,.56,.7,.37,1.26,.89,1.71,1.55v-1.86Zm-3.69,8.89c1.06,0,1.93-.36,2.64-1.07,.7-.71,1.05-1.6,1.05-2.66s-.35-1.95-1.05-2.66-1.58-1.07-2.64-1.07-1.95,.36-2.65,1.07c-.71,.71-1.06,1.6-1.06,2.66s.35,1.95,1.06,2.66c.71,.71,1.59,1.07,2.65,1.07Z"/><path class="cls-1" d="M236.96,124.85c-1.03,0-1.96-.24-2.81-.71-.84-.47-1.51-1.12-1.98-1.95-.48-.83-.72-1.75-.72-2.75s.24-1.93,.72-2.75c.48-.83,1.14-1.48,1.98-1.95,.84-.47,1.78-.71,2.81-.71s1.94,.23,2.77,.7c.83,.46,1.48,1.1,1.95,1.89l-1.51,.91c-.32-.56-.76-1-1.33-1.33-.57-.33-1.19-.49-1.88-.49-1.06,0-1.95,.36-2.65,1.07-.71,.71-1.06,1.6-1.06,2.66s.35,1.95,1.06,2.66c.71,.71,1.59,1.07,2.65,1.07,.69,0,1.31-.17,1.88-.49,.57-.33,1.01-.77,1.33-1.34l1.51,.91c-.47,.8-1.12,1.44-1.95,1.9s-1.76,.7-2.76,.7Z"/><path class="cls-1" d="M253.83,119.44c0,.1-.02,.36-.05,.77h-8.89c.18,.91,.61,1.64,1.3,2.2,.69,.56,1.53,.84,2.53,.84,.74,0,1.42-.16,2.04-.47,.62-.31,1.1-.72,1.45-1.21l1.2,1.03c-.52,.7-1.2,1.25-2.02,1.65-.83,.4-1.74,.6-2.73,.6-1.62,0-2.96-.52-4.04-1.56s-1.61-2.34-1.61-3.89c0-1,.24-1.91,.71-2.74s1.12-1.47,1.95-1.93,1.75-.7,2.77-.7,1.93,.23,2.75,.7c.82,.47,1.47,1.12,1.94,1.94s.7,1.75,.7,2.76Zm-5.41-3.81c-.9,0-1.67,.28-2.32,.84-.65,.56-1.06,1.28-1.23,2.16h7.11c-.16-.9-.57-1.62-1.23-2.17-.65-.55-1.43-.83-2.33-.83Z"/><path class="cls-1" d="M269.29,124.6l-4.17-5.55h-2.05v5.55h-1.86v-13.98h5.67c1.24,0,2.28,.41,3.11,1.22,.83,.81,1.25,1.82,1.25,3.04,0,1.13-.37,2.08-1.12,2.86-.75,.78-1.69,1.21-2.83,1.29l4.25,5.57h-2.25Zm-6.22-12.24v5.07h3.77c.71,0,1.31-.24,1.78-.72,.47-.48,.71-1.08,.71-1.81s-.24-1.33-.71-1.81c-.47-.48-1.07-.72-1.78-.72h-3.77Z"/><path class="cls-1" d="M283.51,119.44c0,.1-.02,.36-.05,.77h-8.89c.18,.91,.61,1.64,1.3,2.2,.69,.56,1.53,.84,2.53,.84,.74,0,1.42-.16,2.04-.47,.62-.31,1.1-.72,1.45-1.21l1.2,1.03c-.52,.7-1.2,1.25-2.02,1.65-.83,.4-1.74,.6-2.73,.6-1.62,0-2.96-.52-4.04-1.56-1.07-1.04-1.61-2.34-1.61-3.89,0-1,.24-1.91,.71-2.74,.47-.82,1.12-1.47,1.95-1.93s1.75-.7,2.77-.7,1.93,.23,2.75,.7c.82,.47,1.47,1.12,1.94,1.94s.7,1.75,.7,2.76Zm-5.41-3.81c-.9,0-1.67,.28-2.32,.84-.65,.56-1.06,1.28-1.23,2.16h7.11c-.16-.9-.57-1.62-1.23-2.17-.65-.55-1.43-.83-2.33-.83Z"/><path class="cls-1" d="M294.28,110.01h1.74v14.59h-1.74v-1.86c-.44,.66-1.01,1.18-1.71,1.55-.7,.37-1.47,.56-2.31,.56-.97,0-1.85-.24-2.64-.71-.79-.47-1.41-1.12-1.86-1.95-.44-.83-.67-1.75-.67-2.75s.22-1.93,.67-2.75c.45-.83,1.06-1.48,1.86-1.95s1.67-.71,2.64-.71c.84,0,1.61,.19,2.31,.56,.7,.37,1.26,.89,1.71,1.55v-6.12Zm-3.69,13.16c1.06,0,1.93-.36,2.64-1.07,.7-.71,1.05-1.6,1.05-2.66s-.35-1.95-1.05-2.66-1.58-1.07-2.64-1.07-1.95,.36-2.65,1.07c-.71,.71-1.06,1.6-1.06,2.66s.35,1.95,1.06,2.66c.71,.71,1.59,1.07,2.65,1.07Z"/><path class="cls-1" d="M309.13,119.44c0,.1-.02,.36-.05,.77h-8.89c.18,.91,.61,1.64,1.3,2.2,.69,.56,1.53,.84,2.53,.84,.74,0,1.42-.16,2.04-.47,.62-.31,1.1-.72,1.45-1.21l1.2,1.03c-.52,.7-1.2,1.25-2.02,1.65-.83,.4-1.74,.6-2.73,.6-1.62,0-2.96-.52-4.04-1.56-1.07-1.04-1.61-2.34-1.61-3.89,0-1,.24-1.91,.71-2.74s1.12-1.47,1.95-1.93,1.75-.7,2.77-.7,1.93,.23,2.75,.7c.82,.47,1.47,1.12,1.94,1.94,.47,.83,.7,1.75,.7,2.76Zm-5.41-3.81c-.9,0-1.67,.28-2.32,.84-.65,.56-1.06,1.28-1.23,2.16h7.11c-.16-.9-.57-1.62-1.23-2.17-.65-.55-1.43-.83-2.33-.83Z"/><path class="cls-1" d="M311.86,112.83c0-.98,.26-1.74,.77-2.27s1.27-.79,2.26-.79c.65,0,1.25,.14,1.79,.43v1.54c-.45-.24-.93-.37-1.42-.37-1.11,0-1.66,.52-1.66,1.57v1.33h2.98v1.57h-2.98v8.75h-1.74v-8.75h-1.88v-1.57h1.88v-1.44Zm7.7-.62c-.34,0-.62-.11-.84-.33-.22-.22-.33-.5-.33-.83s.11-.61,.33-.83c.22-.22,.5-.33,.84-.33s.61,.11,.83,.33,.33,.49,.33,.83-.11,.61-.33,.83-.5,.33-.83,.33Zm-.87,12.39v-10.33h1.74v10.33h-1.74Z"/><path class="cls-1" d="M328.84,114.03c1.26,0,2.27,.38,3.04,1.15s1.15,1.78,1.15,3.05v6.38h-1.74v-5.84c0-.92-.27-1.66-.82-2.22s-1.28-.84-2.2-.84-1.72,.28-2.29,.85c-.57,.57-.86,1.32-.86,2.25v5.8h-1.74v-10.33h1.74v1.57c.84-1.21,2.08-1.82,3.72-1.82Z"/><path class="cls-1" d="M346.01,119.44c0,.1-.02,.36-.05,.77h-8.89c.18,.91,.61,1.64,1.3,2.2,.69,.56,1.53,.84,2.53,.84,.74,0,1.42-.16,2.04-.47,.62-.31,1.1-.72,1.45-1.21l1.2,1.03c-.52,.7-1.2,1.25-2.02,1.65-.83,.4-1.74,.6-2.73,.6-1.62,0-2.96-.52-4.04-1.56s-1.61-2.34-1.61-3.89c0-1,.24-1.91,.71-2.74s1.12-1.47,1.95-1.93c.83-.47,1.75-.7,2.77-.7s1.93,.23,2.75,.7c.82,.47,1.47,1.12,1.94,1.94,.47,.83,.7,1.75,.7,2.76Zm-5.41-3.81c-.9,0-1.67,.28-2.32,.84-.65,.56-1.06,1.28-1.23,2.16h7.11c-.16-.9-.57-1.62-1.23-2.17-.65-.55-1.43-.83-2.33-.83Z"/><path class="cls-1" d="M356.78,110.01h1.74v14.59h-1.74v-1.86c-.44,.66-1.01,1.18-1.71,1.55-.7,.37-1.47,.56-2.31,.56-.97,0-1.85-.24-2.64-.71-.79-.47-1.41-1.12-1.86-1.95-.44-.83-.67-1.75-.67-2.75s.22-1.93,.67-2.75c.45-.83,1.06-1.48,1.86-1.95s1.67-.71,2.64-.71c.84,0,1.61,.19,2.31,.56,.7,.37,1.26,.89,1.71,1.55v-6.12Zm-3.69,13.16c1.06,0,1.93-.36,2.64-1.07,.7-.71,1.05-1.6,1.05-2.66s-.35-1.95-1.05-2.66c-.7-.71-1.58-1.07-2.64-1.07s-1.95,.36-2.65,1.07c-.71,.71-1.06,1.6-1.06,2.66s.35,1.95,1.06,2.66c.71,.71,1.59,1.07,2.65,1.07Z"/></g><g><rect class="cls-1" x="244.44" y="56.06" width="5.4" height="5.4" transform="translate(30.83 191.96) rotate(-45)"/><rect class="cls-1" x="363.13" y="56.06" width="5.4" height="5.4" transform="translate(65.6 275.89) rotate(-45)"/><rect class="cls-1" x="284.04" y="56.08" width="5.4" height="5.4" transform="translate(42.42 219.98) rotate(-45)"/><rect class="cls-1" x="389.54" y="56.08" width="5.4" height="5.4" transform="translate(73.32 294.58) rotate(-45)"/><polygon class="cls-1" points="68.48 77.73 64.68 81.83 64.68 92.53 58.18 92.53 58.18 54.93 64.68 54.93 64.68 73.03 81.48 54.93 89.88 54.93 72.78 73.13 97.68 100.23 89.18 100.23 68.48 77.73"/><path class="cls-1" d="M91.88,81.43v-16.7h6.1v15.9c0,4,2.7,6.6,6.7,6.6s6.7-2.7,6.7-6.6v-15.9h6.1v16.7c0,7.1-5.1,11.7-12.8,11.7s-12.8-4.6-12.8-11.7"/><path class="cls-1" d="M151.58,53.33v39.2h-6.1v-4c-2.3,2.9-5.7,4.6-9.7,4.6-7.8,0-13.7-6.3-13.7-14.5s5.8-14.5,13.7-14.5c4.1,0,7.5,1.7,9.7,4.6v-15.4h6.1Zm-6.1,25.3c0-4.9-3.6-8.7-8.5-8.7s-8.6,3.8-8.6,8.7,3.6,8.7,8.6,8.7c4.9-.1,8.5-3.8,8.5-8.7"/><path class="cls-1" d="M185.68,64.73v27.8h-6.1v-4c-2.3,2.9-5.7,4.6-9.7,4.6-7.8,0-13.7-6.3-13.7-14.5s5.8-14.5,13.7-14.5c4.1,0,7.5,1.7,9.7,4.6v-4s6.1,0,6.1,0Zm-6.1,13.9c0-4.9-3.6-8.7-8.5-8.7s-8.6,3.8-8.6,8.7,3.6,8.7,8.6,8.7c4.9-.1,8.5-3.8,8.5-8.7"/><polygon class="cls-1" points="240.48 54.93 225.38 92.53 218.68 92.53 203.48 54.93 210.78 54.93 222.08 83.93 233.48 54.93 240.48 54.93"/><rect class="cls-1" x="244.18" y="66.23" width="6.1" height="26.2"/><rect class="cls-1" x="257.38" y="53.33" width="6.1" height="39.2"/><rect class="cls-1" x="270.58" y="53.33" width="6.1" height="39.2"/><rect class="cls-1" x="283.78" y="66.23" width="6.1" height="26.2"/><path class="cls-1" d="M323.48,75.03v17.5h-6.1v-15.5c0-4.2-2.7-7.1-6.9-7.1s-7.3,2.9-7.3,7.2v15.3h-6.1v-27.7h6.1v3.6c2.2-2.8,5.4-4.2,9.4-4.2,6.4,0,10.9,4.3,10.9,10.9"/><rect class="cls-1" x="362.88" y="66.23" width="6.1" height="26.2"/><rect class="cls-1" x="376.08" y="53.33" width="6.1" height="39.2"/><rect class="cls-1" x="389.28" y="66.23" width="6.1" height="26.2"/><path class="cls-1" d="M348.38,92.73h-9.5c-2,0-3.3-1.1-3.3-2.7,0-1,.5-2.1,1.5-2.7,1.6,.6,3.3,.9,5.2,.9,7.3,0,12.9-5.2,12.9-12.1,0-2.8-.9-5.4-2.6-7.4,.2-1.5,1.4-2.4,3.1-2.4h1.9v-5.6h-2.2c-3.5,0-6.1,1.8-6.8,4.8-1.9-.9-4-1.5-6.3-1.5-7.3,0-12.9,5.2-12.9,12.1,0,3.5,1.4,6.5,3.8,8.7-2.2,1.3-3.6,3.9-3.6,6.7,0,4.2,3.3,7.1,8.3,7.1h9.5c1.7,0,3.1,.6,4,1.6h7.1c-1.1-4.6-4.9-7.5-10.1-7.5m-6.2-22.9c3.8,0,6.6,2.7,6.6,6.4s-2.8,6.4-6.6,6.4-6.6-2.8-6.6-6.4,2.8-6.4,6.6-6.4"/></g></svg>