<?xml version="1.0" encoding="UTF-8"?><svg id="Layer_2" xmlns="http://www.w3.org/2000/svg" viewBox="0 0 150.18 139.18"><defs><style>.cls-1{fill:#c0a392;}</style></defs><g id="Layer_1-2"><path class="cls-1" d="M150.16,117.32c0-.87-.12-1.76-.36-2.59-8.9-30.89-17.82-61.78-26.74-92.67-.73-2.52-1.35-2.98-3.93-2.98-9.09,0-18.18,0-27.27,0h-1.78c0-1.11,0-1.99,0-2.86,0-4.4,.02-8.8-.01-13.2-.02-2.05-1.29-3.22-3.11-2.98-1.39,.19-2.23,1.22-2.28,2.93-.05,1.68-.01,3.37-.01,5.02h-19.2c0-1.9,.07-3.66-.02-5.41-.09-1.76-1.39-2.77-3.06-2.55-1.43,.19-2.28,1.28-2.29,3.07-.02,4.79,0,9.58-.01,14.37,0,.51-.05,1.02-.07,1.6h-1.94c-8.94,0-17.89,0-26.83,0-2.82,0-3.4,.42-4.16,3.07-7.56,26.2-15.12,52.41-22.68,78.61-1.43,4.96-2.93,9.91-4.4,14.86v21.7c.83,1.39,2.04,1.87,3.66,1.87,47.6-.03,95.21-.02,142.81-.02,2.83,0,3.7-.87,3.7-3.66,0-6.06,.02-12.12-.01-18.18ZM65.51,13.68h19.16v5.35h-19.16v-5.35Zm19.06,11.02v5.2h-18.97v-5.2h18.97Zm-24.47,10.83c0,2.71,0,5.33,0,7.96,0,1.18,.48,2.25,1.62,2.52,.85,.2,2.02,.11,2.69-.37,.62-.44,.99-1.55,1.05-2.39,.15-2.04,.05-4.1,.05-6.16,0-.48,.04-.96,.06-1.5h19.1c0,2.66-.05,5.24,.02,7.82,.06,2.24,1.93,3.5,3.78,2.65,1.16-.53,1.6-1.5,1.6-2.73,0-2.54,0-5.07,0-7.75h21.97c4.32,24.42,8.65,48.87,13.01,73.45H25.24c5.2-24.5,10.4-48.97,15.61-73.5h19.25Zm84.47,98.13H5.61c-.04-.41-.09-.78-.12-1.15-.02-.19,0-.39,0-.59,.07-5.32-.41-10.72,.36-15.94,.76-5.17,2.77-10.15,4.23-15.21,7.19-24.89,14.39-49.78,21.54-74.68,.33-1.15,.73-1.64,2.04-1.63,8.26,.07,16.52,.04,24.78,.04h1.54v5.48h-1.6c-6.26,0-12.51,0-18.77,0-2.53,0-3.31,.65-3.83,3.09-5.45,25.64-10.9,51.28-16.34,76.91-.11,.52-.23,1.05-.27,1.59-.11,1.53,.74,2.64,2.25,2.93,.62,.12,1.26,.14,1.89,.14,34.51,0,69.02,0,103.53,0,.44,0,.88,.02,1.32-.02,2.11-.22,3.12-1.51,2.75-3.62-1.34-7.7-2.7-15.39-4.06-23.08-2.88-16.3-5.77-32.59-8.65-48.89-.34-1.92-.65-3.85-1.02-5.77-.51-2.69-1.23-3.27-3.93-3.28-7.14,0-14.27,0-21.41,0h-1.73v-5.36c.48-.04,.94-.11,1.4-.11,8.41,0,16.82,.01,25.22-.03,1.01,0,1.45,.29,1.73,1.27,8.64,30.06,17.32,60.11,25.98,90.16,.13,.46,.22,.96,.22,1.44,.02,5.13,.01,10.27,0,15.4,0,.28-.07,.56-.11,.92Z"/></g></svg>