<?xml version="1.0" encoding="utf-8"?>
<!-- Generator: Adobe Illustrator 22.0.0, SVG Export Plug-In . SVG Version: 6.00 Build 0)  -->
<svg version="1.1" id="Layer_1" xmlns="http://www.w3.org/2000/svg" xmlns:xlink="http://www.w3.org/1999/xlink" x="0px" y="0px"
	 viewBox="0 0 1040 1040" style="enable-background:new 0 0 1040 1040;" xml:space="preserve">
<style type="text/css">
	.st0{fill:#FFF;}
</style>
<path class="st0" d="M917.7,273.4c-29.6,13-61.1,21.6-94,25.8c33.8-20.2,59.6-51.9,71.7-90.1c-31.5,18.8-66.3,32.1-103.4,39.5
	c-29.9-31.9-72.6-51.6-119.1-51.6c-90.3,0-163,73.3-163,163.1c0,12.9,1.1,25.4,3.8,37.2c-135.6-6.6-255.5-71.6-336.1-170.6
	c-14.1,24.4-22.3,52.3-22.3,82.4c0,56.5,29.1,106.5,72.4,135.5c-26.2-0.5-51.9-8.1-73.7-20.1c0,0.5,0,1.1,0,1.8
	c0,79.2,56.5,145.1,130.7,160.2c-13.3,3.6-27.7,5.4-42.8,5.4c-10.4,0-21-0.6-30.9-2.8c21.1,64.6,81.1,112.1,152.4,113.6
	c-55.5,43.4-125.9,69.6-202.2,69.6c-13.4,0-26.2-0.6-39-2.2c72.2,46.6,157.8,73.2,250.2,73.2c300.1,0,464.1-248.6,464.1-464
	c0-7.2-0.2-14.2-0.6-21.1C868.4,335.1,895.5,306.4,917.7,273.4z"/>
</svg>
